<svg xmlns="http://www.w3.org/2000/svg" width="256" height="256"><path fill-opacity=".333" d="M15 128v128h225V0H15v128" fill="#1976D2" fill-rule="evenodd"/><path fill-opacity=".294" d="M39.125 13.953c-11.206 5.958-20.761 11.443-21.234 12.19-.473.746-.867 7.559-.876 15.138-.011 10.528.298 13.902 1.31 14.29.728.28 3.465-.41 6.082-1.531 2.618-1.122 5.172-2.04 5.676-2.04.549 0 .917 36.279.917 90.48v90.479l3.75 1.892c2.063 1.041 4.76 2.205 5.995 2.586l2.245.695.255-95.692.255-95.691 7-2.661 7-2.661 22.5.7c12.375.386 27.563.74 33.75.787L125 43v211h47.991l.254-104.621.255-104.621 12 .118c6.6.065 20.887.41 31.75.766l19.75.648V27.145c0-14.635-.294-19.151-1.25-19.171-.687-.015-6.425-.257-12.75-.539-17.245-.769-148.943-4.444-156.734-4.374-6.641.059-7.144.261-27.141 10.892" fill="#1976D2" fill-rule="evenodd"/><path fill-opacity=".983" d="M51.5 8.422C46 11.35 36.325 16.478 30 19.819l-11.5 6.075-.277 14.553C18.05 49.568 18.316 55 18.936 55c.545 0 3.289-.906 6.1-2.014 2.81-1.108 5.527-1.756 6.037-1.441.558.345.927 36.45.927 90.815v90.241l4.527 2.2c2.489 1.209 4.739 2.199 5 2.199.26 0 .473-42.863.473-95.25V46.499l6.25-2.493c6.228-2.485 6.355-2.493 35.75-2.236 16.225.142 32.31.513 35.745.823l6.246.565.254 105.171.255 105.171 22.745.269 22.746.269.254-104.769L172.5 44.5l32.25.394 32.25.393V9.144l-5.25-.53c-2.888-.291-39.9-1.451-82.25-2.578C107.15 4.91 70.025 3.788 67 3.544c-5.117-.414-6.196-.074-15.5 4.878" fill="#1976D2" fill-rule="evenodd"/></svg>